<?xml version="1.0" encoding="UTF-8"?>
<svg id="Layer_2" data-name="Layer 2" xmlns="http://www.w3.org/2000/svg" viewBox="0 0 124.27 124.27">
  <defs>
    
  </defs>
  <g id="Capa_3" data-name="Capa 3">
    <g>
      <polygon class="cls-3" points="119.3 44.74 119.3 39.77 119.3 34.79 114.33 34.79 114.33 29.82 114.33 24.85 109.35 24.85 109.35 19.88 104.38 19.88 104.38 14.91 99.41 14.91 99.41 9.94 94.44 9.94 89.47 9.94 89.47 4.97 84.5 4.97 79.53 4.97 79.53 0 74.56 0 69.59 0 64.62 0 59.65 0 54.68 0 49.71 0 44.74 0 44.74 4.97 39.77 4.97 34.79 4.97 34.79 9.94 29.82 9.94 24.85 9.94 24.85 14.91 19.88 14.91 19.88 19.88 14.91 19.88 14.91 24.85 9.94 24.85 9.94 29.82 9.94 34.79 4.97 34.79 4.97 39.77 4.97 44.74 0 44.74 0 49.71 0 54.68 0 59.65 0 64.62 0 69.59 0 74.56 0 79.53 4.97 79.53 4.97 84.5 4.97 89.47 4.97 94.44 9.94 94.44 9.94 99.41 14.91 99.41 14.91 104.38 19.88 104.38 19.88 109.35 24.85 109.35 24.85 114.33 29.82 114.33 29.82 119.3 34.79 119.3 39.77 119.3 44.74 119.3 44.74 124.27 49.71 124.27 54.68 124.27 59.65 124.27 64.62 124.27 69.59 124.27 74.56 124.27 79.53 124.27 79.53 119.3 84.5 119.3 89.47 119.3 94.44 119.3 94.44 114.33 99.41 114.33 99.41 109.35 104.38 109.35 104.38 104.38 109.35 104.38 109.35 99.41 114.33 99.41 114.33 94.44 119.3 94.44 119.3 89.47 119.3 84.5 119.3 79.53 124.27 79.53 124.27 74.56 124.27 69.59 124.27 64.62 124.27 59.65 124.27 54.68 124.27 49.71 124.27 44.74 119.3 44.74"></polygon>
      <g>
        <polygon class="cls-12" points="74.56 114.33 69.59 114.33 69.59 119.3 74.56 119.3 79.53 119.3 79.53 114.33 74.56 114.33"></polygon>
        <polygon class="cls-14" points="54.68 119.3 59.65 119.3 64.62 119.3 69.59 119.3 69.59 114.33 74.56 114.33 79.53 114.33 79.53 109.35 84.5 109.35 84.5 104.38 89.47 104.38 94.44 104.38 94.44 99.41 94.44 94.44 89.47 94.44 89.47 99.41 84.5 99.41 79.53 99.41 79.53 104.38 74.56 104.38 69.59 104.38 64.62 104.38 59.65 104.38 54.68 104.38 49.71 104.38 44.74 104.38 44.74 99.41 39.77 99.41 34.79 99.41 34.79 94.44 29.82 94.44 29.82 89.47 24.85 89.47 24.85 84.5 24.85 79.53 19.88 79.53 19.88 74.56 19.88 69.59 19.88 64.62 19.88 59.65 19.88 54.68 19.88 49.71 24.85 49.71 24.85 44.74 24.85 39.77 24.85 34.79 29.82 34.79 29.82 29.82 34.79 29.82 34.79 24.85 39.77 24.85 44.74 24.85 44.74 19.88 49.71 19.88 54.68 19.88 59.65 19.88 64.62 19.88 69.59 19.88 74.56 19.88 79.53 19.88 79.53 24.85 84.5 24.85 89.47 24.85 89.47 19.88 84.5 19.88 84.5 14.91 79.53 14.91 74.56 14.91 74.56 9.94 69.59 9.94 64.62 9.94 64.62 4.97 59.65 4.97 54.68 4.97 49.71 4.97 44.74 4.97 44.74 9.94 44.74 14.91 39.77 14.91 34.79 14.91 34.79 19.88 29.82 19.88 29.82 24.85 24.85 24.85 24.85 29.82 19.88 29.82 19.88 34.79 19.88 39.77 14.91 39.77 14.91 44.74 14.91 49.71 9.94 49.71 9.94 54.68 4.97 54.68 4.97 59.65 4.97 64.62 4.97 69.59 4.97 74.56 4.97 79.53 9.94 79.53 9.94 84.5 9.94 89.47 14.91 89.47 14.91 94.44 14.91 99.41 19.88 99.41 19.88 104.38 24.85 104.38 24.85 109.35 29.82 109.35 34.79 109.35 34.79 114.33 39.77 114.33 44.74 114.33 44.74 119.3 49.71 119.3 54.68 119.3"></polygon>
        <rect class="cls-6" x="84.5" y="104.38" width="4.97" height="4.97"></rect>
        <polygon class="cls-8" points="69.59 99.41 64.62 99.41 59.65 99.41 54.68 99.41 49.71 99.41 44.74 99.41 44.74 104.38 49.71 104.38 54.68 104.38 59.65 104.38 64.62 104.38 69.59 104.38 74.56 104.38 79.53 104.38 79.53 99.41 74.56 99.41 69.59 99.41"></polygon>
        <polygon class="cls-9" points="54.68 99.41 59.65 99.41 64.62 99.41 69.59 99.41 69.59 94.44 74.56 94.44 74.56 89.47 79.53 89.47 79.53 84.5 79.53 79.53 84.5 79.53 84.5 74.56 84.5 69.59 84.5 64.62 84.5 59.65 84.5 54.68 84.5 49.71 84.5 44.74 79.53 44.74 79.53 39.77 79.53 34.79 74.56 34.79 74.56 29.82 69.59 29.82 69.59 24.85 64.62 24.85 59.65 24.85 54.68 24.85 49.71 24.85 49.71 29.82 49.71 34.79 44.74 34.79 44.74 39.77 39.77 39.77 39.77 44.74 34.79 44.74 34.79 49.71 34.79 54.68 29.82 54.68 29.82 59.65 29.82 64.62 24.85 64.62 24.85 69.59 24.85 74.56 24.85 79.53 29.82 79.53 29.82 84.5 34.79 84.5 34.79 89.47 39.77 89.47 39.77 94.44 44.74 94.44 44.74 99.41 49.71 99.41 54.68 99.41"></polygon>
        <polygon class="cls-8" points="39.77 94.44 39.77 89.47 34.79 89.47 34.79 84.5 29.82 84.5 29.82 79.53 24.85 79.53 24.85 84.5 24.85 89.47 29.82 89.47 29.82 94.44 34.79 94.44 34.79 99.41 39.77 99.41 44.74 99.41 44.74 94.44 39.77 94.44"></polygon>
        <rect class="cls-14" x="94.44" y="89.47" width="4.97" height="4.97"></rect>
        <polygon class="cls-4" points="84.5 94.44 84.5 89.47 89.47 89.47 89.47 84.5 94.44 84.5 94.44 79.53 99.41 79.53 99.41 74.56 94.44 74.56 94.44 69.59 99.41 69.59 99.41 64.62 99.41 59.65 99.41 54.68 99.41 49.71 99.41 44.74 94.44 44.74 94.44 39.77 89.47 39.77 89.47 34.79 84.5 34.79 84.5 29.82 79.53 29.82 79.53 24.85 74.56 24.85 69.59 24.85 69.59 29.82 74.56 29.82 74.56 34.79 79.53 34.79 79.53 39.77 79.53 44.74 84.5 44.74 84.5 49.71 84.5 54.68 84.5 59.65 84.5 64.62 84.5 69.59 84.5 74.56 84.5 79.53 79.53 79.53 79.53 84.5 79.53 89.47 74.56 89.47 74.56 94.44 69.59 94.44 69.59 99.41 74.56 99.41 79.53 99.41 79.53 94.44 84.5 94.44"></polygon>
        <rect class="cls-10" x="99.41" y="84.5" width="4.97" height="4.97"></rect>
        <rect class="cls-14" x="99.41" y="79.53" width="4.97" height="4.97"></rect>
        <polygon class="cls-8" points="99.41 79.53 94.44 79.53 94.44 84.5 89.47 84.5 89.47 89.47 84.5 89.47 84.5 94.44 79.53 94.44 79.53 99.41 84.5 99.41 89.47 99.41 89.47 94.44 94.44 94.44 94.44 89.47 99.41 89.47 99.41 84.5 99.41 79.53"></polygon>
        <polygon class="cls-12" points="119.3 69.59 119.3 64.62 119.3 59.65 119.3 54.68 119.3 49.71 119.3 44.74 114.33 44.74 114.33 39.77 114.33 34.79 109.35 34.79 109.35 29.82 104.38 29.82 104.38 24.85 104.38 19.88 99.41 19.88 99.41 14.91 94.44 14.91 89.47 14.91 89.47 9.94 84.5 9.94 79.53 9.94 79.53 14.91 84.5 14.91 84.5 19.88 89.47 19.88 89.47 24.85 94.44 24.85 94.44 29.82 99.41 29.82 99.41 34.79 99.41 39.77 104.38 39.77 104.38 44.74 104.38 49.71 104.38 54.68 109.35 54.68 109.35 59.65 104.38 59.65 104.38 64.62 104.38 69.59 104.38 74.56 104.38 79.53 104.38 84.5 104.38 89.47 99.41 89.47 99.41 94.44 94.44 94.44 94.44 99.41 94.44 104.38 89.47 104.38 89.47 109.35 84.5 109.35 79.53 109.35 79.53 114.33 84.5 114.33 89.47 114.33 94.44 114.33 94.44 109.35 99.41 109.35 99.41 104.38 104.38 104.38 104.38 99.41 109.35 99.41 109.35 94.44 109.35 89.47 114.33 89.47 114.33 84.5 114.33 79.53 119.3 79.53 119.3 74.56 119.3 69.59"></polygon>
        <rect class="cls-5" x="94.44" y="69.59" width="4.97" height="4.97"></rect>
        <polygon class="cls-8" points="24.85 69.59 24.85 64.62 24.85 59.65 24.85 54.68 24.85 49.71 19.88 49.71 19.88 54.68 19.88 59.65 19.88 64.62 19.88 69.59 19.88 74.56 19.88 79.53 24.85 79.53 24.85 74.56 24.85 69.59"></polygon>
        <rect class="cls-18" x="104.38" y="54.68" width="4.97" height="4.97"></rect>
        <polygon class="cls-2" points="24.85 59.65 24.85 64.62 29.82 64.62 29.82 59.65 29.82 54.68 34.79 54.68 34.79 49.71 34.79 44.74 39.77 44.74 39.77 39.77 39.77 34.79 34.79 34.79 34.79 39.77 29.82 39.77 29.82 44.74 29.82 49.71 24.85 49.71 24.85 54.68 24.85 59.65"></polygon>
        <polygon class="cls-2" points="4.97 54.68 9.94 54.68 9.94 49.71 14.91 49.71 14.91 44.74 14.91 39.77 19.88 39.77 19.88 34.79 19.88 29.82 24.85 29.82 24.85 24.85 29.82 24.85 29.82 19.88 34.79 19.88 34.79 14.91 29.82 14.91 24.85 14.91 24.85 19.88 19.88 19.88 19.88 24.85 14.91 24.85 14.91 29.82 14.91 34.79 9.94 34.79 9.94 39.77 9.94 44.74 4.97 44.74 4.97 49.71 4.97 54.68"></polygon>
        <polygon class="cls-8" points="99.41 49.71 99.41 54.68 99.41 59.65 99.41 64.62 99.41 69.59 99.41 74.56 99.41 79.53 104.38 79.53 104.38 74.56 104.38 69.59 104.38 64.62 104.38 59.65 104.38 54.68 104.38 49.71 104.38 44.74 99.41 44.74 99.41 49.71"></polygon>
        <polygon class="cls-8" points="29.82 44.74 29.82 39.77 24.85 39.77 24.85 44.74 24.85 49.71 29.82 49.71 29.82 44.74"></polygon>
        <rect class="cls-14" x="99.41" y="39.77" width="4.97" height="4.97"></rect>
        <rect class="cls-8" x="94.44" y="39.77" width="4.97" height="4.97"></rect>
        <rect class="cls-15" x="94.44" y="34.79" width="4.97" height="4.97"></rect>
        <rect class="cls-13" x="39.77" y="34.79" width="4.97" height="4.97"></rect>
        <rect class="cls-8" x="29.82" y="34.79" width="4.97" height="4.97"></rect>
        <rect class="cls-17" x="24.85" y="34.79" width="4.97" height="4.97"></rect>
        <rect class="cls-14" x="94.44" y="29.82" width="4.97" height="4.97"></rect>
        <polygon class="cls-8" points="84.5 29.82 84.5 34.79 89.47 34.79 89.47 39.77 94.44 39.77 94.44 34.79 94.44 29.82 89.47 29.82 84.5 29.82"></polygon>
        <polygon class="cls-2" points="39.77 29.82 39.77 34.79 44.74 34.79 49.71 34.79 49.71 29.82 49.71 24.85 44.74 24.85 44.74 29.82 39.77 29.82"></polygon>
        <rect class="cls-8" x="34.79" y="29.82" width="4.97" height="4.97"></rect>
        <rect class="cls-1" x="29.82" y="29.82" width="4.97" height="4.97"></rect>
        <rect class="cls-7" x="104.38" y="24.85" width="4.97" height="4.97"></rect>
        <rect class="cls-14" x="89.47" y="24.85" width="4.97" height="4.97"></rect>
        <rect class="cls-11" x="84.5" y="24.85" width="4.97" height="4.97"></rect>
        <rect class="cls-8" x="79.53" y="24.85" width="4.97" height="4.97"></rect>
        <rect class="cls-8" x="39.77" y="24.85" width="4.97" height="4.97"></rect>
        <rect class="cls-6" x="34.79" y="24.85" width="4.97" height="4.97"></rect>
        <polygon class="cls-8" points="54.68 24.85 59.65 24.85 64.62 24.85 69.59 24.85 74.56 24.85 79.53 24.85 79.53 19.88 74.56 19.88 69.59 19.88 64.62 19.88 59.65 19.88 54.68 19.88 49.71 19.88 44.74 19.88 44.74 24.85 49.71 24.85 54.68 24.85"></polygon>
        <rect class="cls-16" x="74.56" y="9.94" width="4.97" height="4.97"></rect>
        <polygon class="cls-2" points="39.77 14.91 44.74 14.91 44.74 9.94 39.77 9.94 34.79 9.94 34.79 14.91 39.77 14.91"></polygon>
        <polygon class="cls-12" points="69.59 4.97 64.62 4.97 64.62 9.94 69.59 9.94 74.56 9.94 79.53 9.94 79.53 4.97 74.56 4.97 69.59 4.97"></polygon>
      </g>
    </g>
  </g>
</svg>