<?xml version="1.0" encoding="UTF-8"?>
<svg id="Layer_2" data-name="Layer 2" xmlns="http://www.w3.org/2000/svg" viewBox="0 0 1786.93 1560.25">
  <defs>
    
  </defs>
  <g id="Layer_1-2" data-name="Layer 1">
    <path class="cls-1" d="M760.65,661.05c-1.95-1.1-8.45-2.15-10.63-1.65l-55.14,12.66c-9.65,2.23-13.43,10.12-13.42,19.23l.2,200.36c3.05,3.17,10.98,6.13,15.43,5.15l55.54-12.36c5.69-1.26,11.26-6.23,11.26-13.3l.02-200.71c0-3.11-1.32-8.28-3.26-9.38ZM760.65,661.05c-1.95-1.1-8.45-2.15-10.63-1.65l-55.14,12.66c-9.65,2.23-13.43,10.12-13.42,19.23l.2,200.36c3.05,3.17,10.98,6.13,15.43,5.15l55.54-12.36c5.69-1.26,11.26-6.23,11.26-13.3l.02-200.71c0-3.11-1.32-8.28-3.26-9.38ZM760.65,661.05c-1.95-1.1-8.45-2.15-10.63-1.65l-55.14,12.66c-9.65,2.23-13.43,10.12-13.42,19.23l.2,200.36c3.05,3.17,10.98,6.13,15.43,5.15l55.54-12.36c5.69-1.26,11.26-6.23,11.26-13.3l.02-200.71c0-3.11-1.32-8.28-3.26-9.38ZM1274.67,580.67l-36.82,139.3c26.83-1.27,49.31-2.54,74.08-8.36l-37.26-130.94ZM760.65,661.05c-1.95-1.1-8.45-2.15-10.63-1.65l-55.14,12.66c-9.65,2.23-13.43,10.12-13.42,19.23l.2,200.36c3.05,3.17,10.98,6.13,15.43,5.15l55.54-12.36c5.69-1.26,11.26-6.23,11.26-13.3l.02-200.71c0-3.11-1.32-8.28-3.26-9.38ZM1274.67,580.67l-36.82,139.3c26.83-1.27,49.31-2.54,74.08-8.36l-37.26-130.94ZM1786.25,720.72c-1.79-1.48-3.86-2.37-3.86-2.37-1.75-.74-3.69-1.29-5-1.24l-85.48-4.39,6.55-305.93c.12-5.44-2.03-14.09-4.72-16.99-2.68-2.92-10.92-6.02-15.49-6.06l-91.11-.53,32.45-195.62c10.37-62.5,31.95-122.45,64.46-175.4,1.15-1.88,1.38-7.34.4-8.99-.74-1.24-5.31-3.2-6.94-3.2l-471.79.3c-29.11.02-51.37,20.76-54.98,48.23-4.15,31.63-5.38,61.28-6.42,93.47l-8.85,277.77c-139.74,20.83-265.89,48.51-401.43,86.08,11.17-45.32,24.05-82.44,37.69-122.89,2.54-7.55,2.69-26.8-8.98-26.8-24.78,0-49.71,3.64-76.29,6.5l-7.54-234.83c-.88-27.53-2.09-52.82-6.35-79.89-4.05-25.75-26.94-47.49-54.71-47.51L143.02.02c-3.74,0-10.94,2.21-10.52,4.88l1.55,10.1c24.43,40.76,41.85,82.26,52.78,129.43,16.28,70.19,27.25,139.94,36.51,215.05-88.66-18.51-130.19-36.16-218.02-49.04-7.72,2.38-5.42,18.4-3.11,24.25,37.22,94.31,38.62,105.65,46.14,212.1l64.46,32.74,17.85,72.83,106.22,494.98c6.75,31.42,35.02,178.57,60.71,188.17l195.53,75.34,157.62,57.31,232.32,85.88c17.86,6.6,35.17,8.94,53.37,2.04l137.42-52.1,275.39-110.62,166.22-68.64,47.8-21.05c13.92-6.13,26.83-18.21,27.82-35.46l9.88-171.34,68.8-1.44c4.18-.09,11.29-6.79,11.65-10.97l11.4-135.61,39.98.11c6.74.02,6.11-4.88,7.28-12.32,1.94-12.37,17.35-100.11,23.14-124.89,11.59-49.6,27.2-87.62,23.07-91.03ZM1230.25,75.82l336.91.14-24.25,74.19c-16.75,76.33-29.72,151.3-41.18,234.95-94.55,4.49-184.83,11.63-282.83,23.94l11.35-333.23ZM1140.1,834.26l22.22-82.46,46.22-169.96c.83-3.01,1.2-8.66.63-11-.58-2.35-6.48-4.97-9.92-7.31.05-15.27,1.63-32.63,3.97-50.38l143.23-16.68,7.11,48.13-13.8,12.52,70.09,243.32c1.98,6.89,9.48,9.81,17.35,11.99l.51,52.87-104.69,7.58.03-53.04c7.29-3.73,14.37-9.96,12.02-16.85l-10.05-29.49-100.88,10.73-10.98,37.51,14.72,7.2.32,52.1-101.08,12.24-.83-50.97,13.82-8.05ZM929.11,552.32l138.28-24.43,41.63,29.4.22,78.4-72.63,12.47-.97-42.97c-.08-3.44-10.35-6.78-13.86-6.17l-45.26,7.97c-7.42,1.3-13.4,9.62-13.4,17.38l.17,214.65c0,3.39,9.95,7.88,13.69,7.34l45.8-6.4c4.57-.64,13.23-7.28,13.29-12.02l.54-42.66,72.57-10.29-.12,70.36-43.28,51.76-136.55,18.43-44.51-31.82-.18-281.57,44.58-49.86ZM795.14,578.87l48.91,31.94-.18,277.88-47.18,55.62-87.8,19.33-61.37,14.26-44.78-33.73.57-278.68,45.15-52.84,146.69-33.78ZM592.1,76.81l10.63,299.12-104.74,22.25c-6.17,2.35-11.46,7.45-13.69,13.68l-40.51,155.24-54.42,212.38c-4.66-16.57-9.31-33.59-12.29-50.97l-22.65-131.93-50.51-293.82c-8.29-48.26-16.77-93.3-26.65-140.76-7.98-29.59-17.38-57.06-29.34-85.93l344.15.74ZM350.44,1266.94l-68.22-282.35-110.69-473.55-50.78-28.37c-5.22-29.59-12.29-55.11-21.88-87.56l155.68,48.85,53.58,262,48.62,235.35,24.51,110.84,115.57-469.66,27.83-117.41c2.83-3.29,10.71-7.97,15.15-9.01l147.72-34.14-29.34,80.67-61.66,19.34-23.88,99.04-55.58,222.64-108.94,445.07-57.69-21.78ZM1509.51,1151.54l-6.32,78.95c-.43,5.46-7.55,13.93-13.57,16.3l-564.12,222.54c-9.54,3.77-17.88,3.11-27.15-.36l-289.15-107.73-152.19-55.88c1.31-7.7,3.85-16.35,6.95-25.9,82.17-29.09,163.97-55.46,247.62-79.21l105.88,46.34,94.28,39.66,112.94-66.87,173.22-102.2c103.54-11.36,207.66-19.41,315.32-22.75l-3.69,57.11ZM830.99,1172.17l202.23-35.97c-39.52,26.29-78.57,44.4-119.58,68.67l-82.65-32.7ZM1600.9,1020.76c-42.95.77-106.08,2.49-182.29,6.78-148.11,8.33-378.03,23.67-659.59,86.41-89.22,19.88-175,40.05-262.12,71.18l21.78-83.53c145.29-42.39,311.66-81.77,496.79-110.31,219.14-33.78,418.49-45.28,591.06-45.28-1.88,24.91-3.75,49.83-5.63,74.74ZM1524.53,861.66l-72.52,1.35-.62-49.42,18.68-12.19-.03-250.02c-3.82-4.19-10.58-6.43-19.05-8.57l-.45-53.33,115.25-4.57.74,49.2-17.02,11.33-.22,253.44,73.28.86,1.05-29.98,63.03.52.06,89.24-162.18,2.13ZM1274.67,580.67l-36.82,139.3c26.83-1.27,49.31-2.54,74.08-8.36l-37.26-130.94ZM697.1,896.8l55.54-12.36c5.69-1.26,11.26-6.23,11.26-13.3l.02-200.71c0-3.11-1.32-8.28-3.26-9.38-1.95-1.1-8.45-2.15-10.63-1.65l-55.14,12.66c-9.65,2.23-13.43,10.12-13.42,19.23l.2,200.36c3.05,3.17,10.98,6.13,15.43,5.15ZM760.65,661.05c-1.95-1.1-8.45-2.15-10.63-1.65l-55.14,12.66c-9.65,2.23-13.43,10.12-13.42,19.23l.2,200.36c3.05,3.17,10.98,6.13,15.43,5.15l55.54-12.36c5.69-1.26,11.26-6.23,11.26-13.3l.02-200.71c0-3.11-1.32-8.28-3.26-9.38ZM760.65,661.05c-1.95-1.1-8.45-2.15-10.63-1.65l-55.14,12.66c-9.65,2.23-13.43,10.12-13.42,19.23l.2,200.36c3.05,3.17,10.98,6.13,15.43,5.15l55.54-12.36c5.69-1.26,11.26-6.23,11.26-13.3l.02-200.71c0-3.11-1.32-8.28-3.26-9.38Z"></path>
  </g>
</svg>